<svg width="394" height="222" viewBox="0 0 394 222" fill="none" xmlns="http://www.w3.org/2000/svg">
<path d="M388.856 0L231.797 56.6323C210.733 29.7981 167.248 14.7909 134.142 14.9934C115.313 15.0105 95.8975 19.2849 79.8593 28.519C71.4588 33.3559 63.9861 39.5549 58.0074 47.2153C41.7402 64.3672 29.4739 82.6097 0 82.2727C25.6387 88.5372 24.2003 95.0615 27.1349 99.8588C31.3459 106.74 38.5405 134.019 59.6475 156.262C71.2242 170.744 91.6073 173.06 109.49 174.205C121.27 175.296 136.725 173.003 143.327 184.727C142.249 191.874 141.171 199.021 140.093 206.168C160.923 211.444 181.755 216.723 202.584 222C201.207 209.956 199.83 197.907 198.452 185.863C182.613 178.796 166.163 171.261 154.446 158.701C149.276 151.571 153.557 157.487 157.652 160.18C177.694 171.898 201.692 175.524 224.564 179.481C232.693 170.51 240.822 161.539 248.951 152.568C239.842 147.285 222.631 141.56 216.786 132.421C229.517 124.312 244.36 119.729 255.736 111.235C251.738 107.155 247.738 103.072 243.741 98.9914C244.021 97.0327 244.189 95.1054 244.266 93.2037L394 9.94787L388.856 0ZM184.783 57.3318C191.62 57.1719 197.303 62.2257 197.474 68.6185C197.474 69.4351 197.425 70.2345 197.272 71.0055C192.783 70.1974 187.085 70.6143 181.485 72.1562C179.002 72.8443 176.611 73.7322 174.419 74.7801C173.383 73.1383 172.766 71.2367 172.712 69.1952C172.541 62.8022 177.946 57.4882 184.783 57.3318Z" fill="black"/>
</svg>
